# xmcd
#
# Track frame offsets:
# 150
# 14845
# 33272
# 52830
# 69982
# 87977
# 105450
# 123392
# 141355
# 157390
# 172705
#
# Disc length: 2537 seconds
#
#
# Revision: 2
# Processed by: cddbd v1.4PL0 Copyright (c) Steve Scherf et al.
# Submitted via: FreeRIP 2.51 
#
DISCID=8e09e70b
DTITLE=BlackHawk - Love and Gravity
DYEAR=1900
DGENRE=
TTITLE0=Love And Gravity
TTITLE1=Stepping Stones
TTITLE2=Postmarked Birmingham
TTITLE3=Will You Be There (In The Morning)
TTITLE4=It Ain't About Love Anymore
TTITLE5=Nobody's Fool
TTITLE6=If That Was A Lie
TTITLE7=Hole In My Heart
TTITLE8=Hold Me Harmless
TTITLE9=She Dances With Her Shadow
TTITLE10=Lonely Boy
EXTD=
EXTT0=
EXTT1=
EXTT2=
EXTT3=
EXTT4=
EXTT5=
EXTT6=
EXTT7=
EXTT8=
EXTT9=
EXTT10=
PLAYORDER=
